<?xml version="1.0"?>
<svg xmlns="http://www.w3.org/2000/svg" xmlns:xlink="http://www.w3.org/1999/xlink" xmlns:svgjs="http://svgjs.com/svgjs" version="1.1" width="512" height="512" x="0" y="0" viewBox="0 0 128 128" style="enable-background:new 0 0 512 512" xml:space="preserve"><g><defs xmlns="http://www.w3.org/2000/svg"><linearGradient id="a" x1="97.058" y1="97.058" x2="30.942" y2="30.942" gradientUnits="userSpaceOnUse"><stop stop-opacity="1" stop-color="#09aeb2" offset="0"/><stop stop-opacity="1" stop-color="#fcca46" offset="1"/></linearGradient></defs><path xmlns="http://www.w3.org/2000/svg" d="M99.485,42.115a1.806,1.806,0,0,1-1.425,2.054,1.635,1.635,0,0,1-.277.023A1.828,1.828,0,0,1,96.03,42.7c-.007-.038-.012-.077-.017-.115a1.752,1.752,0,1,1,3.472-.474Zm-2,35.753a9.349,9.349,0,0,1,1.983,8.076h0l-1.93,10.2a1.753,1.753,0,0,1-1.394,1.394l-10.2,1.93a11.319,11.319,0,0,1-2.089.2A8.906,8.906,0,0,1,77.868,97.5a9.339,9.339,0,0,1-4.3,7.109l-8.583,5.841a1.745,1.745,0,0,1-1.968,0l-8.581-5.84a9.342,9.342,0,0,1-4.3-7.11,8.906,8.906,0,0,1-5.988,2.173,11.308,11.308,0,0,1-2.088-.2l-10.2-1.93a1.752,1.752,0,0,1-1.394-1.394l-1.93-10.2a9.351,9.351,0,0,1,1.983-8.077,9.342,9.342,0,0,1-7.119-4.3l-5.84-8.583a1.742,1.742,0,0,1,0-1.968l5.84-8.581a9.343,9.343,0,0,1,7.119-4.3,9.347,9.347,0,0,1-1.983-8.075l1.93-10.2a1.751,1.751,0,0,1,1.394-1.394l10.2-1.93a9.341,9.341,0,0,1,8.076,1.983,9.346,9.346,0,0,1,4.3-7.119l8.583-5.84a1.746,1.746,0,0,1,1.968,0l8.58,5.84a9.338,9.338,0,0,1,4.3,7.119,9.34,9.34,0,0,1,8.076-1.983l10.2,1.93a1.752,1.752,0,0,1,1.394,1.394l.613,3.246a1.75,1.75,0,0,1-3.439.65l-.392-2.072L85.3,31.97a5.83,5.83,0,0,0-5.318,1.338L77.9,35.386V50.1H92.614l2.078-2.078a4.5,4.5,0,0,0,.386-.437,1.75,1.75,0,0,1,2.768,2.142c-.11.143-.238.27-.357.405a9.338,9.338,0,0,1,7.116,4.3l5.841,8.583a1.742,1.742,0,0,1,0,1.968l-5.84,8.581A9.339,9.339,0,0,1,97.487,77.868ZM77.9,58.245l3.281,3.28L89.112,53.6H77.9Zm3.281,8.23L77.9,69.755V74.4H89.112ZM53.6,33.937,64,44.344,74.4,33.937V30.99a5.834,5.834,0,0,0-2.807-4.7L64,21.117l-7.6,5.169a5.835,5.835,0,0,0-2.8,4.7ZM66.475,46.819l3.28,3.281H74.4V38.888ZM53.6,50.1h4.645l3.28-3.281L53.6,38.888ZM33.308,48.022,35.386,50.1H50.1V35.386l-2.078-2.078A5.826,5.826,0,0,0,42.7,31.97l-9.026,1.708L31.97,42.705A5.835,5.835,0,0,0,33.308,48.022ZM30.99,74.4h2.947L44.344,64,33.937,53.6H30.99a5.834,5.834,0,0,0-4.7,2.807L21.117,64l5.169,7.6A5.835,5.835,0,0,0,30.99,74.4ZM50.1,77.9H35.386l-2.078,2.077A5.839,5.839,0,0,0,31.97,85.3l1.708,9.026,9.027,1.708a5.829,5.829,0,0,0,5.317-1.338L50.1,92.614Zm0-8.145-3.281-3.28L38.888,74.4H50.1ZM74.4,94.063,64,83.656l-1.259,1.26a1.75,1.75,0,1,1-2.476-2.473l1.26-1.262L58.245,77.9H53.6V89.112l.324-.324A1.75,1.75,0,1,1,56.4,91.263l-2.8,2.8V97.01a5.834,5.834,0,0,0,2.807,4.7L64,106.883l7.6-5.169a5.835,5.835,0,0,0,2.8-4.7Zm0-16.163H69.755l-3.28,3.281L74.4,89.112Zm4.3-13.9-3.792-3.793A1.75,1.75,0,0,1,74.4,58.97V53.6H69.03a1.75,1.75,0,0,1-1.237-.513L64,49.3l-3.793,3.792a1.75,1.75,0,0,1-1.237.513H53.6v2.15a1.75,1.75,0,0,1-3.5,0V53.6H38.888l7.931,7.925.626-.626a1.75,1.75,0,1,1,2.475,2.475L49.294,64l3.793,3.793A1.75,1.75,0,0,1,53.6,69.03V74.4h5.37a1.75,1.75,0,0,1,1.237.513L64,78.705l3.793-3.792A1.75,1.75,0,0,1,69.03,74.4H74.4V69.03a1.75,1.75,0,0,1,.513-1.237ZM94.692,79.977,92.614,77.9H77.9V92.614l2.077,2.078A5.831,5.831,0,0,0,85.3,96.03l9.026-1.708L96.03,85.3A5.839,5.839,0,0,0,94.692,79.977Zm7.023-8.384L106.883,64l-5.169-7.6a5.835,5.835,0,0,0-4.7-2.8H94.063L83.656,64,94.063,74.4H97.01A5.834,5.834,0,0,0,101.715,71.593Z" fill="url(#a)" data-original="url(#a)" style=""/></g></svg>
